<svg xmlns="http://www.w3.org/2000/svg" width="500" height="520" viewBox="0 0 500 520"><g transform="translate(856 -267)"><circle cx="250" cy="250" r="250" transform="translate(-856 287)" fill="#ffd500"/><path d="M-612.3,292.948s57.1,156.579,25.636,270.015S-731.4,746.327-731.4,746.327s-23.664-8.913-52.155-42.3c-14.216-16.658-26.876-31.557-38.6-55.851-14.259-29.539-25.43-64.427-27.1-98.561-.814-16.593-.746-42.388,3.216-56.672,5.048-18.2,9.718-41.856,17.728-59.547,13.494-29.8,33.61-54.933,72.688-88.7,16.51-14.267,41.782-28.073,58.726-34.907C-651.224,291.364-612.3,292.948-612.3,292.948Z" fill="#f90"/><g transform="translate(-856 287)" fill="none" stroke="#000" stroke-width="10"><circle cx="250" cy="250" r="250" stroke="none"/><circle cx="250" cy="250" r="245" fill="none"/></g><g transform="translate(-810 332)" fill="none" stroke="#000" stroke-width="10"><circle cx="205" cy="205" r="205" stroke="none"/><circle cx="205" cy="205" r="200" fill="none"/></g><text transform="translate(-711 677)" font-size="380" font-family="SegoeUI-Semibold, Segoe UI" font-weight="600"><tspan x="0" y="0">$</tspan></text></g></svg>